<?xml version="1.0" encoding="UTF-8" standalone="no"?>
<svg
   xmlns:dc="http://purl.org/dc/elements/1.1/"
   xmlns:cc="http://creativecommons.org/ns#"
   xmlns:rdf="http://www.w3.org/1999/02/22-rdf-syntax-ns#"
   xmlns:svg="http://www.w3.org/2000/svg"
   xmlns="http://www.w3.org/2000/svg"
   xmlns:sodipodi="http://sodipodi.sourceforge.net/DTD/sodipodi-0.dtd"
   xmlns:inkscape="http://www.inkscape.org/namespaces/inkscape"
   inkscape:version="1.0 (4035a4fb49, 2020-05-01)"
   sodipodi:docname="websitelogo1.svg"
   xml:space="preserve"
   viewBox="0 0 457.50647 203.40649"
   height="184.91499"
   width="415.91498"
   y="0px"
   x="0px"
   id="Capa_1"
   version="1.1"><metadata
   id="metadata886"><rdf:RDF><cc:Work
       rdf:about=""><dc:format>image/svg+xml</dc:format><dc:type
         rdf:resource="http://purl.org/dc/dcmitype/StillImage" /><dc:title></dc:title></cc:Work></rdf:RDF></metadata><defs
   id="defs884"><rect
     id="rect906"
     height="44.139"
     width="189.04817"
     y="41.640564"
     x="172.39194" /></defs><sodipodi:namedview
   scale-x="1.1"
   inkscape:current-layer="Capa_1"
   inkscape:window-maximized="1"
   inkscape:window-y="-8"
   inkscape:window-x="-8"
   inkscape:cy="88.019114"
   inkscape:cx="312.83089"
   inkscape:zoom="1.2007522"
   showborder="true"
   showgrid="false"
   id="namedview882"
   inkscape:window-height="715"
   inkscape:window-width="1366"
   inkscape:pageshadow="2"
   inkscape:pageopacity="0"
   guidetolerance="10"
   gridtolerance="10"
   objecttolerance="10"
   borderopacity="1"
   bordercolor="#666666"
   pagecolor="#ffffff" />
<g
   transform="matrix(-0.88328858,0,0,0.921744,163.61127,7.2454282)"
   style="fill:#ff7f2a"
   id="g849">
	<g
   style="fill:#ff7f2a"
   id="g847">
		<path
   style="fill:#ff7f2a"
   id="path845"
   d="M 144.797,22.048 C 134.671,10.744 121.269,0.246 88.175,0.002 75.245,-0.099 55.509,2.955 40.153,19.198 30.861,29.014 24.001,41.396 25.968,61.655 c 0.423,4.396 6.695,9.478 2.281,17.973 0,0 -9.466,16.66 -9.14,19.437 0,0 -0.17,5.072 7.675,5.23 0,0 1.958,0.249 1.397,4.573 l -0.088,6.296 c 0,0 0.243,1.888 3.678,3.021 0,0 0.648,0.645 -0.323,1.887 0,0 -1.815,2.016 1.297,6.369 1.154,1.596 3.017,3.6 1.875,7.673 0,0 -1.464,7.929 1.635,9.804 0,0 3.529,4.189 17.726,2.441 4.957,-0.608 14.136,-3.008 19.604,3.849 0,0 13.064,24.825 14.054,30.708 0,0 22.311,-39.689 49.505,-45.821 0,0 -6.619,-14.949 6.868,-34.312 0,0 16.897,-22.295 17.403,-34.556 0.006,-0.008 4.469,-20.653 -16.618,-44.179 z m -22.085,73.99 c -11.49,0.383 -12.068,-7.283 -17.458,-13.25 -0.791,0.055 -1.553,0.131 -2.362,0.155 C 89.405,83.33 91.886,69.007 86.631,65.104 74.029,55.739 56.264,63.874 46.99,54.402 43.997,51.348 41.437,48.441 41.044,44.489 40.094,34.911 42.314,30.758 47.06,25.74 59.745,12.333 76.079,9.517 87.566,9.517 c 30.908,0.225 41.687,9.454 50.145,18.879 13.926,15.552 14.79,28.951 14.577,33.783 0.024,0.587 0.146,1.142 0.146,1.742 0.006,17.725 -13.311,31.556 -29.722,32.117 z" />
	</g>
</g>
<g
   id="g851">
</g>
<g
   id="g853">
</g>
<g
   id="g855">
</g>
<g
   id="g857">
</g>
<g
   id="g859">
</g>
<g
   id="g861">
</g>
<g
   id="g863">
</g>
<g
   id="g865">
</g>
<g
   id="g867">
</g>
<g
   id="g869">
</g>
<g
   id="g871">
</g>
<g
   id="g873">
</g>
<g
   id="g875">
</g>
<g
   id="g877">
</g>
<g
   id="g879">
</g>
<path
   id="path902"
   d="m 159.40009,27.815897 c 0,97.438933 0,97.438933 0,97.438933"
   style="fill:#271306;stroke:#000000;stroke-width:0.883176px;stroke-linecap:butt;stroke-linejoin:miter;stroke-opacity:1;fill-opacity:1" /><text
   style="font-style:normal;font-weight:normal;font-size:40px;line-height:1.25;font-family:sans-serif;white-space:pre;shape-inside:url(#rect906);fill:#000000;fill-opacity:1;stroke:none;"
   id="text904"
   xml:space="preserve" /><text
   transform="scale(0.99302332,1.0070257)"
   id="text912"
   y="72.228661"
   x="180.20598"
   style="font-style:normal;font-variant:normal;font-weight:bold;font-stretch:normal;font-size:32px;line-height:1.25;font-family:Calibri;-inkscape-font-specification:'Calibri, Bold';font-variant-ligatures:normal;font-variant-caps:normal;font-variant-numeric:normal;font-variant-east-asian:normal;opacity:1;fill:#db048b;fill-opacity:0.991936;stroke:none;stroke-width:0.838085"
   xml:space="preserve"><tspan
     style="font-style:normal;font-variant:normal;font-weight:bold;font-stretch:normal;font-size:32px;font-family:Calibri;-inkscape-font-specification:'Calibri, Bold';font-variant-ligatures:normal;font-variant-caps:normal;font-variant-numeric:normal;font-variant-east-asian:normal;fill:#db048b;fill-opacity:0.991936;stroke-width:0.838085"
     y="72.228661"
     x="180.20598"
     id="tspan910"
     sodipodi:role="line">JK EXAMS QUEST</tspan></text><text
   transform="scale(0.85970766,1.1631861)"
   id="text1673"
   y="86.618553"
   x="196.99445"
   style="font-style:normal;font-variant:normal;font-weight:bold;font-stretch:normal;font-size:19.1835px;line-height:1.25;font-family:Arial;-inkscape-font-specification:'Arial, Bold';font-variant-ligatures:normal;font-variant-caps:normal;font-variant-numeric:normal;font-variant-east-asian:normal;fill:#1306c2;fill-opacity:0.958702;stroke:none;stroke-width:0.479587"
   xml:space="preserve"><tspan
     style="font-style:normal;font-variant:normal;font-weight:bold;font-stretch:normal;font-size:19.1835px;font-family:Arial;-inkscape-font-specification:'Arial, Bold';font-variant-ligatures:normal;font-variant-caps:normal;font-variant-numeric:normal;font-variant-east-asian:normal;fill:#1306c2;fill-opacity:0.958702;stroke-width:0.479587"
     y="86.618553"
     x="196.99445"
     id="tspan1671"
     sodipodi:role="line">PREPARE PRACTICE ACHIEVE</tspan></text></svg>
