<?xml version="1.0" encoding="UTF-8"?>
<svg xmlns="http://www.w3.org/2000/svg" xmlns:xlink="http://www.w3.org/1999/xlink" width="512" height="512" viewBox="0 0 58 58" version="1.1"><!-- Generator: Sketch 51.3 (57544) - http://www.bohemiancoding.com/sketch --><title>001 - Thinking</title><desc>Created with Sketch.</desc><defs/><g id="Page-1" stroke="none" stroke-width="1" fill="none" fill-rule="evenodd"><g id="001---Thinking" fill-rule="nonzero"><path d="M17.851,50.3 C21.28,51.851 22.783,58 22.783,58 L47.877,57.931 C47.4065957,56.9544122 46.8720951,56.0100165 46.277,55.104 C45.8035523,54.1351747 45.4066732,53.1307732 45.09,52.1 C44.5018368,50.1115058 44.0948435,48.0738616 43.874,46.012 C43.5019743,42.844112 43.9796519,39.634284 45.258,36.712 C46.385,34.142 48.342,32.106 49.834,29.753 C51.3117476,27.4551091 52.1068955,24.7849656 52.127,22.053 C52.183116,19.285616 51.8436887,16.5244021 51.119,13.853 C50.1709103,10.6166836 48.1928224,7.77805373 45.485,5.768 C40.534,1.88 35.473,-0.294 29.069,0.032 C25.8638989,0.255128449 22.6794062,0.712347803 19.541,1.4 C16.123,2.088 12.504,3.366 10.051,5.956 C8.37805987,7.74440225 7.08532207,9.85360603 6.251,12.156 C5.86094234,13.3015771 5.54331546,14.4705509 5.3,15.656 C4.88988932,16.945719 4.39549136,18.2071019 3.82,19.432 C3.6506763,19.805028 3.57679184,20.2143135 3.605,20.623 C3.8,22.007 5.873,22.6 5.89,24.029 C5.86775722,24.3442587 5.77074717,24.6496861 5.607,24.92 C4.38997289,27.4909033 2.89649632,29.921575 1.153,32.169 C0.741,32.674 -0.096,33.669 0.009,34.383 C0.083,34.89 0.691,35.311 1.066,35.59 C1.866,36.184 3.494,36.59 3.698,37.662 C3.80308167,38.2079291 3.73707672,38.7729874 3.509,39.28 C2.956,40.447 2.343,41.069 2.778,41.435 C3.213,41.801 4.378,42.68 4.378,42.68 C4.378,42.68 3.271,44.094 3.884,44.528 C4.644,45.068 5.612,45.317 5.87,46.328 C5.94680147,47.1291317 5.86663877,47.9375522 5.634,48.708 C5.55589413,49.4619685 5.65449984,50.2237661 5.922,50.933 C6.28385658,52.3510633 7.70055656,53.2306531 9.132,52.926 C12.0836884,52.2090036 14.9942998,51.3323818 17.851,50.3" id="Shape" fill="#B49ACA"/><path d="M58,11.056 L58,12.944 C58.0000776,13.3242149 57.732533,13.651957 57.36,13.728 L54.5,14.3 C54.3038717,15.0280218 54.0134106,15.72728 53.636,16.38 L55.26,18.804 C55.4707199,19.1210018 55.4288968,19.5425792 55.16,19.812 L53.824,21.148 C53.5545792,21.4168968 53.1330018,21.4587199 52.816,21.248 L50.392,19.624 C49.73928,20.0014106 49.0400218,20.2918717 48.312,20.488 L47.736,23.352 C47.659957,23.724533 47.3322149,23.9920776 46.952,23.992 L45.056,23.992 C44.6757851,23.9920776 44.348043,23.724533 44.272,23.352 L43.7,20.5 C42.9719782,20.3038717 42.27272,20.0134106 41.62,19.636 L39.196,21.26 C38.8789982,21.4707199 38.4574208,21.4288968 38.188,21.16 L36.852,19.824 C36.5831032,19.5545792 36.5412801,19.1330018 36.752,18.816 L38.376,16.392 C37.9934604,15.7361304 37.6989299,15.032754 37.5,14.3 L34.636,13.724 C34.263467,13.647957 33.9959224,13.3202149 33.996,12.94 L33.996,11.056 C33.9959224,10.6757851 34.263467,10.348043 34.636,10.272 L37.5,9.7 C37.6961283,8.97197816 37.9865894,8.27271996 38.364,7.62 L36.744,5.192 C36.5332801,4.87499821 36.5751032,4.45342077 36.844,4.184 L38.18,2.848 C38.4494208,2.57910324 38.8709982,2.53728008 39.188,2.748 L41.612,4.372 C42.2668207,3.99117091 42.9688242,3.69799703 43.7,3.5 L44.276,0.636 C44.3533832,0.266524349 44.6785104,0.00142067573 45.056,4.90523685e-16 L46.944,4.90523685e-16 C47.3242149,-7.76013427e-05 47.651957,0.267466997 47.728,0.64 L48.3,3.5 C49.0280218,3.6961283 49.72728,3.9865894 50.38,4.364 L52.804,2.74 C53.1210018,2.52928008 53.5425792,2.57110324 53.812,2.84 L55.148,4.176 C55.4168968,4.44542077 55.4587199,4.86699821 55.248,5.184 L53.632,7.616 C54.0111194,8.26977079 54.3029368,8.97040155 54.5,9.7 L57.364,10.276 C57.7334757,10.3533832 57.9985793,10.6785104 58,11.056 Z" id="Shape" fill="#35495E"/><circle id="Oval" fill="#2C3E50" cx="46" cy="12" r="7"/><circle id="Oval" fill="#35495E" cx="46" cy="12" r="5"/><path d="M9.226,16.467 C8.96269632,16.4088525 8.73403419,16.2468349 8.59188349,16.0176992 C8.44973279,15.7885636 8.40614226,15.5117316 8.471,15.25 C8.62815969,14.5552533 8.82515171,13.8701218 9.061,13.198 C9.75614575,11.2732275 10.833794,9.50912284 12.229,8.012 C13.853,6.3 16.516,5.06 20.145,4.338 C20.6867913,4.23058063 21.2130806,4.58270867 21.3205,5.1245 C21.4279194,5.66629134 21.0757913,6.19258061 20.534,6.3 C17.32,6.939 15.015,7.978 13.682,9.386 C12.4735869,10.6860602 11.5399523,12.2166087 10.937,13.886 C10.7283699,14.4873676 10.5537603,15.1000036 10.414,15.721 C10.2880751,16.2523001 9.75925515,16.5843706 9.226,16.467 Z" id="Shape" fill="#ECF0F1"/><path d="M50,17.82 L50,20.18 C50.000097,20.6552686 49.6656663,21.0649463 49.2,21.16 L45.62,21.88 C45.3748369,22.7900264 45.0117607,23.6640988 44.54,24.48 L46.57,27.51 C46.8321051,27.9074027 46.7777237,28.4344844 46.44,28.77 L44.77,30.44 C44.4344844,30.7777237 43.9074027,30.8321051 43.51,30.57 L40.48,28.54 C39.6640988,29.0117607 38.7900264,29.3748369 37.88,29.62 L37.16,33.2 C37.0649463,33.6656663 36.6552686,34.000097 36.18,34 L33.82,34 C33.3447314,34.000097 32.9350537,33.6656663 32.84,33.2 L32.12,29.62 C31.2099736,29.3748369 30.3359012,29.0117607 29.52,28.54 L26.49,30.57 C26.0925973,30.8321051 25.5655156,30.7777237 25.23,30.44 L23.56,28.77 C23.2222763,28.4344844 23.1678949,27.9074027 23.43,27.51 L25.46,24.48 C24.9882393,23.6640988 24.6251631,22.7900264 24.38,21.88 L20.8,21.16 C20.3343337,21.0649463 19.999903,20.6552686 20,20.18 L20,17.82 C19.999903,17.3447314 20.3343337,16.9350537 20.8,16.84 L24.38,16.12 C24.6251631,15.2099736 24.9882393,14.3359012 25.46,13.52 L23.43,10.49 C23.1678949,10.0925973 23.2222763,9.56551559 23.56,9.23 L25.23,7.56 C25.5655156,7.22227632 26.0925973,7.16789487 26.49,7.43 L29.52,9.46 C30.3359012,8.98823931 31.2099736,8.62516308 32.12,8.38 L32.84,4.8 C32.9350537,4.33433375 33.3447314,3.999903 33.82,4 L36.18,4 C36.6552686,3.999903 37.0649463,4.33433375 37.16,4.8 L37.88,8.38 C38.7900264,8.62516308 39.6640988,8.98823931 40.48,9.46 L43.51,7.43 C43.9074027,7.16789487 44.4344844,7.22227632 44.77,7.56 L46.44,9.23 C46.7777237,9.56551559 46.8321051,10.0925973 46.57,10.49 L44.54,13.52 C45.0117607,14.3359012 45.3748369,15.2099736 45.62,16.12 L49.2,16.84 C49.6656663,16.9350537 50.000097,17.3447314 50,17.82 Z" id="Shape" fill="#3F5C6C"/><circle id="Oval" fill="#35495E" cx="35" cy="19" r="8"/><circle id="Oval" fill="#2C3E50" cx="35" cy="19" r="6"/><circle id="Oval" fill="#547580" cx="35" cy="19" r="1"/><circle id="Oval" fill="#ECF0F1" cx="8" cy="20" r="1"/></g></g></svg>
